<?xml version="1.0" encoding="UTF-8" standalone="no"?>
<svg
   xmlns:dc="http://purl.org/dc/elements/1.1/"
   xmlns:cc="http://creativecommons.org/ns#"
   xmlns:rdf="http://www.w3.org/1999/02/22-rdf-syntax-ns#"
   xmlns:svg="http://www.w3.org/2000/svg"
   xmlns="http://www.w3.org/2000/svg"
   viewBox="0 0 400 266.66666"
   height="266.66666"
   width="400"
   xml:space="preserve"
   id="svg2"
   version="1.1"><metadata
     id="metadata8"><rdf:RDF><cc:Work
         rdf:about=""><dc:format>image/svg+xml</dc:format><dc:type
           rdf:resource="http://purl.org/dc/dcmitype/StillImage" /></cc:Work></rdf:RDF></metadata><defs
     id="defs6" /><g
     transform="matrix(1.3333333,0,0,-1.3333333,0,266.66667)"
     id="g10"><g
       id="g12"><path
         id="path14"
         style="fill:#ffffff;fill-opacity:1;fill-rule:nonzero;stroke:none"
         d="M 0,200 H 300 V 0 H 0 Z" /></g><g
       transform="translate(0,100)"
       id="g16"><path
         id="path18"
         style="fill:#0057b7;fill-opacity:1;fill-rule:nonzero;stroke:none"
         d="M 0,100 H 300 V 0 H 0 Z" /></g><g
       id="g20"><path
         id="path22"
         style="fill:#ffcc00;fill-opacity:1;fill-rule:nonzero;stroke:none"
         d="M 0,100 H 300 V 0 H 0 Z" /></g><g
       transform="translate(35,139.09601)"
       id="g24"><path
         id="path26"
         style="fill:#ffffff;fill-opacity:1;fill-rule:nonzero;stroke:none"
         d="m 0,-5.096001 z m 15.744,0 1.2,9.792 h -6.335999 l -1.2,-9.792 H 6.816 l 1.200001,9.792 H 4.176 v 2.736 h 4.176 l 0.864,7.104 H 5.136001 V 17.32 h 4.416 l 1.104,8.784 h 2.544 l -1.056,-8.784 h 6.336 l 1.104001,8.784 h 2.544 L 21.072001,17.32 h 3.840002 V 14.535999 H 20.736 l -0.863998,-7.104 H 23.952 v -2.736 h -4.416001 l -1.199997,-9.792 z m 1.536001,12.528 0.864,7.104 h -6.336 L 10.944,7.431999 Z m 11.501249,-12.528 z m 14.639999,-0.576 c -2.303997,0 -4.431999,0.416 -6.383998,1.248001 -1.920002,0.832001 -3.600003,1.968003 -5.040001,3.408001 l 2.400001,2.783997 C 35.581253,0.584 36.957253,-0.375999 38.525249,-1.112 c 1.568001,-0.703998 3.264,-1.055999 5.088002,-1.055999 2.175998,0 3.855999,0.464 5.040001,1.391998 1.215999,0.928001 1.823997,2.128002 1.823997,3.600002 0,0.831997 -0.144001,1.536 -0.431999,2.112 -0.287998,0.576 -0.688,1.071998 -1.200001,1.487999 -0.511997,0.416 -1.119999,0.784 -1.823997,1.104 -0.672001,0.32 -1.408001,0.655998 -2.208001,1.007999 L 40.30125,10.504 c -0.799999,0.319999 -1.600002,0.704 -2.400001,1.152 -0.799999,0.448 -1.535999,0.991999 -2.208,1.632 -0.64,0.640001 -1.168,1.392 -1.584,2.255999 -0.416,0.896002 -0.624,1.920002 -0.624,3.072002 0,1.184 0.256,2.288 0.768001,3.312 0.512001,1.024001 1.216,1.904 2.112,2.64 0.928001,0.767999 2.016002,1.36 3.264,1.776001 1.280002,0.416 2.672,0.624 4.176002,0.624 1.983997,0 3.807999,-0.368 5.472,-1.104 1.663998,-0.704 3.071999,-1.632002 4.223999,-2.784002 l -2.111999,-2.591997 c -1.024002,0.927999 -2.160004,1.647997 -3.408001,2.159996 -1.247998,0.544 -2.688,0.816002 -4.32,0.816002 -1.824001,0 -3.296001,-0.416001 -4.416,-1.248001 -1.119999,-0.8 -1.680001,-1.92 -1.680001,-3.360001 0,-0.768 0.16,-1.423998 0.48,-1.967999 0.352001,-0.511999 0.784,-0.975999 1.296001,-1.392 0.543999,-0.384 1.152001,-0.719999 1.824002,-1.007999 0.672001,-0.288 1.343998,-0.576 2.015999,-0.864 l 4.416,-1.920001 c 0.959999,-0.384 1.855999,-0.832 2.688,-1.343999 0.864002,-0.48 1.600002,-1.056 2.208,-1.728001 0.639999,-0.639999 1.135998,-1.408001 1.487999,-2.304001 0.383999,-0.863998 0.576,-1.871998 0.576,-3.023998 0,-1.248001 -0.256001,-2.416001 -0.767998,-3.504002 -0.512005,-1.088001 -1.248005,-2.048 -2.208,-2.880001 C 50.62125,-3.880001 49.453251,-4.52 48.077251,-5 46.701252,-5.448002 45.14925,-5.672001 43.421249,-5.672001 Z m 14.141251,0.576 z m 18.912003,-0.576 c -1.696,0 -3.120003,0.223999 -4.272004,0.672001 -1.152,0.48 -2.079994,1.136002 -2.783996,1.967999 -0.704003,0.864002 -1.216004,1.888 -1.536003,3.072002 -0.288002,1.183998 -0.432,2.495998 -0.432,3.935997 v 11.040003 h -6.576 v 2.976 l 6.719998,0.239999 0.528,7.488001 h 3.263999 V 18.232 H 82.858498 V 15.016001 H 71.386497 v -11.088 c 0,-1.056003 0.096,-1.984001 0.288003,-2.784 0.192001,-0.768002 0.512001,-1.424 0.959999,-1.968002 0.448005,-0.543999 1.056007,-0.959999 1.824005,-1.248001 0.767997,-0.256001 1.711998,-0.383999 2.831993,-0.383999 1.120003,0 2.127998,0.096 3.024002,0.288002 0.896004,0.191997 1.760002,0.447998 2.592003,0.767997 L 83.7705,-4.279999 c -1.056,-0.383999 -2.176002,-0.704002 -3.36,-0.960003 C 79.258499,-5.528 77.946503,-5.672001 76.474503,-5.672001 Z m 9.869247,0.576 z m 14.4,-0.576 c -1.536002,0 -3.008002,0.271999 -4.415999,0.816002 -1.375999,0.543999 -2.592003,1.327999 -3.648002,2.351997 -1.056,1.056 -1.904,2.335999 -2.543999,3.840001 -0.608002,1.535999 -0.912003,3.263999 -0.912003,5.184001 0,1.952 0.304001,3.679999 0.912003,5.184 0.639999,1.536002 1.487999,2.832001 2.543999,3.888001 1.055999,1.056 2.272003,1.855999 3.648002,2.4 1.407997,0.544 2.879997,0.816 4.415999,0.816 1.536,0 2.99201,-0.272 4.36801,-0.816 1.40799,-0.544001 2.64,-1.344 3.696,-2.4 1.05599,-1.056 1.88799,-2.351999 2.49599,-3.888001 0.64,-1.504001 0.96,-3.232 0.96,-5.184 0,-1.920002 -0.32,-3.648002 -0.96,-5.184001 -0.608,-1.504002 -1.44,-2.784001 -2.49599,-3.840001 -1.056,-1.023998 -2.28801,-1.807998 -3.696,-2.351997 -1.376,-0.544003 -2.83201,-0.816002 -4.36801,-0.816002 z m 0,3.264 c 1.12,0 2.128,0.208 3.024,0.624001 0.928,0.448001 1.712,1.055999 2.352,1.824001 0.67201,0.799999 1.18401,1.743999 1.536,2.832001 0.352,1.087997 0.528,2.303997 0.528,3.647998 0,1.343998 -0.176,2.559998 -0.528,3.647999 -0.35199,1.120001 -0.86399,2.08 -1.536,2.880001 -0.64,0.800001 -1.424,1.408001 -2.352,1.824 -0.896,0.448 -1.904,0.671999 -3.024,0.671999 -1.120001,0 -2.143996,-0.223999 -3.071997,-0.671999 -0.896004,-0.415999 -1.68,-1.023999 -2.352005,-1.824 -0.639999,-0.800001 -1.136002,-1.76 -1.487999,-2.880001 -0.351997,-1.088001 -0.528,-2.304001 -0.528,-3.647999 0,-1.344001 0.176003,-2.560001 0.528,-3.647998 0.351997,-1.088002 0.848,-2.032002 1.487999,-2.832001 0.672005,-0.768002 1.456001,-1.376 2.352005,-1.824001 0.928001,-0.416001 1.951996,-0.624001 3.071997,-0.624001 z m 14.38125,-2.688 z m 4.464,-9.84 V 18.232 h 3.264 l 0.336,-2.975999 h 0.144 c 1.08801,1.024 2.33601,1.871999 3.744,2.544 1.44,0.671999 2.88,1.008 4.32,1.008 1.568,0 2.94399,-0.288001 4.12799,-0.864001 1.21601,-0.544 2.224,-1.344 3.02401,-2.400001 0.832,-1.023999 1.456,-2.271998 1.872,-3.743998 0.41601,-1.44 0.624,-3.072 0.624,-4.896002 0,-1.983997 -0.288,-3.759998 -0.864,-5.327999 -0.576,-1.535999 -1.36,-2.847999 -2.352,-3.936001 -0.96,-1.088001 -2.07999,-1.919998 -3.36001,-2.495998 -1.28,-0.544003 -2.62399,-0.816002 -4.03199,-0.816002 -1.088,0 -2.27199,0.256001 -3.552,0.768002 -1.248,0.543998 -2.384,1.295997 -3.408,2.256 h -0.144 l 0.192,-4.416 v -7.872002 z m 10.176,12.576 c 2.112,0 3.84,0.816002 5.184,2.448002 1.344,1.632 2.016,3.904 2.016,6.815998 0,1.280003 -0.12801,2.448002 -0.38401,3.504002 -0.25599,1.056 -0.65599,1.952 -1.19999,2.688 -0.512,0.767999 -1.18399,1.36 -2.016,1.775999 -0.832,0.416 -1.824,0.624 -2.97599,0.624 -1.02401,0 -2.12801,-0.288 -3.31201,-0.864 -1.152,-0.544001 -2.336,-1.424 -3.552,-2.639999 V 0.375999 c 1.12,-0.992 2.24,-1.695999 3.36,-2.111999 1.12,-0.416 2.08,-0.624001 2.88,-0.624001 z m 14.14125,-2.736 z m 5.28,0 -4.8,31.536 h 4.512 l 2.304,-19.775998 c 0.064,-0.672 0.128,-1.280002 0.19201,-1.824001 0.064,-0.544002 0.112,-1.104 0.14399,-1.68 0.064,-0.544003 0.112,-1.120003 0.144,-1.728001 0.064,-0.607998 0.112,-1.295997 0.144,-2.063999 h 0.14399 c 0.12801,0.768002 0.256,1.456001 0.38401,2.063999 0.128,0.607998 0.24,1.183998 0.336,1.728001 0.128,0.576 0.25599,1.135998 0.384,1.68 0.128,0.543999 0.272,1.135998 0.43201,1.776001 l 3.07199,11.712 h 3.83999 l 2.97602,-11.712 c 0.15998,-0.640003 0.30398,-1.232002 0.43199,-1.776001 0.128,-0.544002 0.24,-1.104 0.336,-1.68 0.128,-0.544003 0.24,-1.120003 0.336,-1.728001 0.128,-0.607998 0.272,-1.295997 0.432,-2.063999 h 0.192 c 0.032,0.768002 0.064,1.456001 0.096,2.063999 0.064,0.607998 0.112,1.183998 0.14399,1.728001 0.064,0.576 0.11202,1.135998 0.14402,1.68 0.064,0.543999 0.12799,1.135998 0.192,1.776001 l 2.20799,19.823998 h 4.32001 l -4.608,-31.536 h -4.99201 L 159.55424,7.576 c -0.25599,0.959999 -0.47999,1.904 -0.67199,2.832001 -0.15999,0.927999 -0.31999,1.872 -0.48,2.832001 h -0.144 c -0.16,-0.960001 -0.32,-1.904002 -0.48001,-2.832001 C 157.61826,9.48 157.41025,8.535999 157.15425,7.576 l -3.072,-12.672001 z m 23.50125,0 z m 11.808,-0.576 c -1.088,0 -2.112,0.16 -3.07199,0.48 -0.96001,0.287998 -1.808,0.703998 -2.54401,1.248001 -0.70399,0.576 -1.26401,1.264 -1.68001,2.063999 -0.416,0.832001 -0.62399,1.776001 -0.62399,2.832001 0,1.312 0.304,2.447998 0.912,3.408001 0.64,0.992 1.63199,1.84 2.976,2.543998 1.37599,0.703999 3.136,1.279999 5.28,1.728001 2.144,0.448002 4.72,0.799999 7.728,1.056 -0.032,0.800001 -0.15999,1.552 -0.38401,2.256 -0.224,0.704001 -0.576,1.312001 -1.056,1.824 -0.47999,0.544 -1.11999,0.975999 -1.91999,1.295999 -0.76799,0.32 -1.71199,0.48 -2.83201,0.48 -1.53599,0 -3.00799,-0.303999 -4.416,-0.911999 -1.408,-0.576 -2.65599,-1.200001 -3.74398,-1.872 l -1.53601,2.688002 c 0.576,0.383999 1.248,0.767998 2.016,1.151998 0.80001,0.416001 1.63201,0.784001 2.496,1.104 0.896,0.32 1.84,0.576001 2.832,0.768 0.99199,0.224001 2,0.336001 3.02401,0.336001 3.19999,0 5.56799,-0.880002 7.10399,-2.640002 1.568,-1.727998 2.352,-4.047998 2.352,-6.959999 V -5.096001 h -3.216 l -0.336,3.168 h -0.144 c -1.31199,-1.023999 -2.768,-1.904 -4.36799,-2.64 -1.56801,-0.736 -3.18401,-1.104 -4.84801,-1.104 z m 1.056,3.167999 c 1.34401,0 2.656,0.288002 3.936,0.864003 1.312,0.607998 2.64,1.472 3.984,2.591999 v 6.144001 c -2.49599,-0.192002 -4.592,-0.464001 -6.288,-0.816002 -1.664,-0.352001 -3.00799,-0.784001 -4.032,-1.295998 -0.992,-0.479999 -1.696,-1.040001 -2.112,-1.68 -0.416,-0.608002 -0.624,-1.296002 -0.624,-2.064003 0,-0.672001 0.14399,-1.247997 0.432,-1.727997 0.288,-0.448002 0.65599,-0.832001 1.10401,-1.152 0.47999,-0.288002 1.02398,-0.512001 1.63199,-0.672001 0.63999,-0.128002 1.296,-0.192002 1.968,-0.192002 z m 15.91725,-2.591999 z m 7.008,0 V 18.232 h 3.264 l 0.336,-5.52 h 0.144 c 1.216,1.887998 2.70401,3.375999 4.464,4.464001 1.79201,1.087999 3.776,1.632 5.952,1.632 0.864,0 1.664,-0.08 2.40001,-0.24 0.73599,-0.128 1.47198,-0.368002 2.20799,-0.720001 l -0.912,-3.408001 c -0.832,0.288 -1.536,0.496 -2.112,0.624 -0.54399,0.128 -1.28,0.192002 -2.20799,0.192002 -1.76,0 -3.45601,-0.512 -5.08802,-1.536 -1.59999,-0.992 -3.10399,-2.704 -4.51199,-5.136001 V -5.096001 Z" /></g><g
       transform="translate(35,139.09601)"
       id="g28"><text
         id="text32"
         style="font-variant:normal;font-weight:normal;font-size:48px;font-family:Arial;-inkscape-font-specification:Arial;writing-mode:lr-tb;fill:#000000;fill-opacity:1;fill-rule:nonzero;stroke:none"
         transform="matrix(1,0,0,-1,0,-5.096001)"><tspan
           id="tspan30"
           y="0"
           x="0 28.799999 57.599998 86.400002 115.2 144 172.8 201.60001"></tspan></text>
</g><g
       transform="translate(7,43.159996)"
       id="g34"><path
         id="path36"
         style="fill:#ffffff;fill-opacity:1;fill-rule:nonzero;stroke:none"
         d="m 0,-2.159996 z m 3.16,0 V 24.080006 H 6.52 V 13.080004 h 10.96 v 11.000002 h 3.36 V -2.159996 H 17.48 V 10.200005 H 6.52 V -2.159996 Z m 20.824375,0 z m 13.200001,-0.48 c -1.466667,0 -2.84,0.226666 -4.119999,0.680001 -1.253334,0.453335 -2.360001,1.119999 -3.320002,2 -0.933332,0.880001 -1.68,1.946666 -2.24,3.2 -0.533334,1.279999 -0.800001,2.733332 -0.800001,4.359999 0,1.573334 0.266667,2.986668 0.800001,4.24 0.56,1.253334 1.293334,2.320002 2.200001,3.200001 0.933333,0.879999 1.986666,1.546667 3.16,2 1.200001,0.480001 2.453331,0.720001 3.759998,0.720001 1.38667,0 2.626667,-0.226667 3.720002,-0.68 1.119999,-0.426667 2.053333,-1.039999 2.799999,-1.840001 0.773334,-0.800001 1.36,-1.76 1.759998,-2.880001 0.400002,-1.12 0.600002,-2.36 0.600002,-3.719999 0,-0.373335 -0.01333,-0.733333 -0.04,-1.08 -0.02666,-0.346666 -0.06667,-0.653333 -0.119999,-0.92 h -15.32 C 30.237709,4.42667 31.037708,2.760002 32.424374,1.640003 33.837708,0.546669 35.557709,4e-6 37.584373,4e-6 c 1.173337,0 2.22667,0.16 3.160004,0.479999 0.959999,0.346669 1.879997,0.8 2.759998,1.360001 l 1.200001,-2.16 C 43.744377,-0.959995 42.637711,-1.50666 41.384377,-1.959995 40.157711,-2.41333 38.75771,-2.639996 37.184376,-2.639996 Z m -0.48,17.800002 c -0.799999,0 -1.573334,-0.133334 -2.319999,-0.400002 -0.720002,-0.266666 -1.373337,-0.653334 -1.960003,-1.16 -0.586665,-0.479999 -1.079998,-1.093332 -1.479998,-1.84 -0.4,-0.746666 -0.68,-1.599998 -0.84,-2.559999 h 12.399999 c -0.133335,2 -0.720001,3.493333 -1.759998,4.479999 -1.013332,0.986668 -2.36,1.480002 -4.040001,1.480002 z M 47.96875,-2.159996 Z m 16.279999,-0.48 c -2.079998,0 -3.666664,0.586667 -4.759999,1.759999 -1.093334,1.173336 -1.639999,2.920002 -1.639999,5.240001 v 19.280001 h -6.920002 v 2.679999 H 61.12875 V 4.120003 c 0,-1.439999 0.346668,-2.48 1.040001,-3.119999 0.693332,-0.613331 1.626667,-0.919998 2.799999,-0.919998 1.146667,0 2.360001,0.293331 3.639999,0.879997 l 0.840004,-2.439999 c -0.906669,-0.373333 -1.733337,-0.653335 -2.480003,-0.84 -0.746666,-0.213333 -1.653328,-0.32 -2.720001,-0.32 z m 7.704376,0.48 z m 3.720001,-8.200001 v 27.640002 h 2.720001 l 0.279999,-2.48 h 0.119995 c 0.90667,0.853334 1.946671,1.560001 3.120003,2.120001 1.200005,0.559999 2.400002,0.84 3.599999,0.84 1.306671,0 2.453338,-0.24 3.440002,-0.720001 1.013336,-0.453333 1.85334,-1.120001 2.520004,-2 0.693329,-0.853333 1.213326,-1.893332 1.559998,-3.119999 0.346664,-1.200001 0.519996,-2.560002 0.519996,-4.080002 0,-1.653334 -0.239997,-3.133331 -0.720001,-4.439999 -0.479995,-1.280002 -1.133331,-2.373336 -1.959999,-3.280002 -0.799995,-0.906666 -1.73333,-1.599999 -2.799995,-2.079998 -1.066674,-0.453335 -2.186669,-0.680001 -3.360001,-0.680001 -0.906669,0 -1.893333,0.213334 -2.959999,0.64 -1.040001,0.453335 -1.986671,1.080002 -2.840004,1.880001 h -0.120003 l 0.160004,-3.68 v -6.560002 z m 8.479996,10.48 c 1.760002,0 3.200005,0.68 4.320007,2.040001 1.119995,1.36 1.679993,3.253334 1.679993,5.68 0,1.066668 -0.106667,2.040001 -0.319992,2.92 -0.213341,0.879999 -0.546677,1.626667 -1.000008,2.24 -0.426666,0.640001 -0.986664,1.133333 -1.679992,1.479999 -0.693337,0.346667 -1.520005,0.520001 -2.480004,0.520001 -0.853332,0 -1.77333,-0.24 -2.760002,-0.719999 -0.959999,-0.453333 -1.946663,-1.186667 -2.959999,-2.200001 V 2.400005 c 0.933334,-0.826667 1.866669,-1.413334 2.800003,-1.760002 0.933327,-0.346668 1.73333,-0.52 2.399994,-0.52 z m 35.768758,-2.279999 z m 12.04,-0.48 c -1.28001,0 -2.46667,0.186669 -3.56001,0.560002 -1.09333,0.373333 -2.04,0.973331 -2.84,1.799999 -0.77333,0.853333 -1.38666,1.933331 -1.83999,3.239998 -0.42667,1.306667 -0.64,2.906668 -0.64,4.800001 v 16.320002 h 3.35999 V 7.680004 c 0,-1.359999 0.13333,-2.519998 0.4,-3.479999 0.29334,-0.933335 0.68,-1.693333 1.16001,-2.279999 0.50666,-0.560002 1.09332,-0.973335 1.75999,-1.240002 0.66667,-0.266666 1.40001,-0.400001 2.20001,-0.400001 0.80001,0 1.53333,0.133335 2.2,0.400001 0.66667,0.266667 1.25333,0.68 1.75999,1.240002 0.50667,0.586666 0.89333,1.346664 1.16001,2.279999 0.29333,0.960001 0.44,2.12 0.44,3.479999 v 16.400002 h 3.23999 V 7.760004 c 0,-1.893333 -0.22667,-3.493334 -0.67999,-4.800001 -0.42667,-1.306667 -1.02667,-2.386665 -1.8,-3.239998 -0.77334,-0.826668 -1.70667,-1.426666 -2.80001,-1.799999 -1.06666,-0.373333 -2.23999,-0.560002 -3.51999,-0.560002 z m 11.94437,0.48 z m 4.24,0 v 28.48 h 3.28 V 7.040005 h 0.15999 l 10.48001,10.24 h 3.76 l -7.76,-7.64 8.80001,-11.800001 h -3.68001 l -7.16,9.799999 -4.6,-4.52 v -5.279999 z m 19.74437,0 z m 5.84,0 v 19.440001 h 2.72 l 0.28,-4.600001 h 0.12001 c 1.01332,1.573334 2.25333,2.813334 3.71999,3.720001 1.49333,0.906668 3.14666,1.360001 4.96,1.360001 0.72001,0 1.38668,-0.06667 2,-0.200001 0.61333,-0.106666 1.22667,-0.306667 1.84,-0.6 l -0.75999,-2.84 c -0.69333,0.239999 -1.28,0.413332 -1.76,0.52 -0.45334,0.106667 -1.06668,0.16 -1.84001,0.16 -1.46666,0 -2.87999,-0.426666 -4.23999,-1.280001 -1.33333,-0.826666 -2.58667,-2.253332 -3.76001,-4.279999 V -2.159996 Z m 18.14438,0 z m 9.84,-0.48 c -0.90667,0 -1.76,0.133332 -2.56,0.399998 -0.8,0.240002 -1.50667,0.586666 -2.12,1.040001 -0.58667,0.48 -1.05334,1.053333 -1.40001,1.720001 -0.34666,0.693333 -0.51999,1.48 -0.51999,2.360001 0,1.093334 0.25333,2.039999 0.76,2.84 0.53334,0.826666 1.36,1.533333 2.48,2.119999 1.14666,0.586668 2.61334,1.066668 4.4,1.440001 1.78667,0.373332 3.93334,0.666666 6.44001,0.880001 -0.0267,0.666666 -0.13335,1.293331 -0.32001,1.879999 -0.18666,0.586666 -0.48,1.093332 -0.88001,1.52 -0.39999,0.453333 -0.93331,0.813334 -1.59999,1.08 -0.64,0.266667 -1.42666,0.4 -2.36,0.4 -1.28,0 -2.50666,-0.253334 -3.68,-0.76 -1.17333,-0.48 -2.21334,-1 -3.12,-1.56 l -1.28,2.24 c 0.48,0.32 1.03999,0.639999 1.67999,0.960001 0.66668,0.346666 1.36,0.653333 2.08001,0.919998 0.74667,0.266668 1.53334,0.480001 2.36,0.640001 0.82667,0.186667 1.66667,0.280001 2.52,0.280001 2.66667,0 4.64,-0.733334 5.92,-2.200001 1.30667,-1.44 1.96001,-3.373333 1.96001,-5.800001 v -11.92 H 209.795 l -0.28,2.639999 h -0.12 c -1.09333,-0.853332 -2.30667,-1.586666 -3.64,-2.2 -1.30667,-0.613331 -2.65333,-0.919999 -4.04,-0.919999 z m 0.88,2.64 c 1.12,0 2.21333,0.240001 3.28,0.720001 1.09334,0.506664 2.2,1.226666 3.32001,2.16 v 5.119999 c -2.08001,-0.16 -3.82668,-0.386666 -5.24001,-0.679999 -1.38667,-0.293333 -2.50667,-0.653333 -3.36,-1.080001 -0.82667,-0.4 -1.41333,-0.866665 -1.75999,-1.4 C 198.48834,4.33334 198.315,3.760006 198.315,3.120003 c 0,-0.560002 0.12,-1.040001 0.36,-1.439999 0.24001,-0.373333 0.54666,-0.693333 0.92,-0.959999 0.40001,-0.240002 0.85333,-0.426666 1.36,-0.560001 0.53334,-0.106667 1.08,-0.16 1.64,-0.16 z m 13.26437,-2.16 z m 12.64,0 v 16.760002 h -9.03999 v 2.679999 h 12.31999 V -2.159996 Z m 1.28,23.52 c -0.74666,0 -1.37332,0.226666 -1.87999,0.680001 -0.50667,0.479999 -0.76001,1.106666 -0.76001,1.879999 0,0.773334 0.25334,1.386667 0.76001,1.84 0.50667,0.480001 1.13333,0.720001 1.87999,0.720001 0.74666,0 1.37334,-0.24 1.88001,-0.720001 0.50667,-0.453333 0.75999,-1.066666 0.75999,-1.84 0,-0.773333 -0.25332,-1.4 -0.75999,-1.879999 -0.50667,-0.453335 -1.13335,-0.680001 -1.88001,-0.680001 z m 10.06438,-23.52 z m 3.72,0 v 19.440001 h 2.72 l 0.28,-3.32 h 0.16 c 1.01333,1.093334 2.10666,2 3.28,2.719999 1.17333,0.720001 2.51999,1.080002 4.04,1.080002 2.31999,0 4.01332,-0.666668 5.08,-2.000002 1.09335,-1.306665 1.64001,-3.253332 1.64001,-5.84 v -12.08 h -3.28 V 9.480003 c 0,1.840002 -0.34667,3.200003 -1.04,4.080002 -0.69335,0.906666 -1.84002,1.359999 -3.44001,1.359999 -0.58667,0 -1.13333,-0.08 -1.64,-0.239998 -0.47999,-0.133335 -0.96,-0.346668 -1.44,-0.640001 -0.47999,-0.293333 -0.97333,-0.666668 -1.47999,-1.120001 -0.50667,-0.426666 -1.04001,-0.933333 -1.60001,-1.519999 V -2.159996 Z m 20.26437,0 z m 13.20002,-0.48 c -1.46668,0 -2.84003,0.226666 -4.12003,0.680001 -1.25332,0.453335 -2.35998,1.119999 -3.31998,2 -0.93334,0.880001 -1.68002,1.946666 -2.24002,3.2 -0.53332,1.279999 -0.79998,2.733332 -0.79998,4.359999 0,1.573334 0.26666,2.986668 0.79998,4.24 0.56,1.253334 1.29334,2.320002 2.20002,3.200001 0.93331,0.879999 1.98666,1.546667 3.16,2 1.19998,0.480001 2.45334,0.720001 3.76001,0.720001 1.38666,0 2.62665,-0.226667 3.71997,-0.68 1.12003,-0.426667 2.05334,-1.039999 2.80002,-1.840001 0.77334,-0.800001 1.36001,-1.76 1.76001,-2.880001 0.39999,-1.12 0.59997,-2.36 0.59997,-3.719999 0,-0.373335 -0.0133,-0.733333 -0.04,-1.08 -0.0267,-0.346666 -0.0667,-0.653333 -0.12,-0.92 H 269.8681 c 0.21332,-2.213335 1.01331,-3.880003 2.4,-5.000002 1.41333,-1.093334 3.13333,-1.639999 5.16,-1.639999 1.17331,0 2.22666,0.16 3.16,0.479999 0.96,0.346669 1.88001,0.8 2.75998,1.360001 l 1.20002,-2.16 c -0.96,-0.639999 -2.06669,-1.186664 -3.32001,-1.639999 -1.22666,-0.453335 -2.62665,-0.680001 -4.19998,-0.680001 z m -0.48001,17.800002 c -0.80002,0 -1.57334,-0.133334 -2.32001,-0.400002 -0.72,-0.266666 -1.37332,-0.653334 -1.95999,-1.16 -0.58667,-0.479999 -1.08002,-1.093332 -1.48001,-1.84 -0.4,-0.746666 -0.68,-1.599998 -0.84,-2.559999 h 12.39999 c -0.13333,2 -0.71997,3.493333 -1.75998,4.479999 -1.01333,0.986668 -2.36001,1.480002 -4.04,1.480002 z" /></g><g
       transform="translate(7,43.159996)"
       id="g38"><text
         id="text42"
         style="font-variant:normal;font-weight:normal;font-size:40px;font-family:Arial;-inkscape-font-specification:Arial;writing-mode:lr-tb;fill:#000000;fill-opacity:1;fill-rule:nonzero;stroke:none"
         transform="matrix(1,0,0,-1,0,-2.159996)"><tspan
           id="tspan40"
           y="0"
           x="0 24 48 72 96 120 144 168 192 216 240 264"></tspan></text>
</g></g></svg>
